<svg xmlns="http://www.w3.org/2000/svg" width="242.516" height="39.095" viewBox="0 0 242.516 39.095">
  <g id="Grupo_1333" data-name="Grupo 1333" transform="translate(-477 -125)">
    <g id="Grupo_6" data-name="Grupo 6" transform="translate(477 125)">
      <g id="Grupo_1" data-name="Grupo 1">
        <path id="Trazado_1" data-name="Trazado 1" d="M312.008,491.189a27.7,27.7,0,0,1,1.143-7.046,10.4,10.4,0,0,0,.44-6.62c-.388-1.692-.437-3.077-.11-3.077a.616.616,0,0,1,.592.635,8.816,8.816,0,0,0,1.782,2.754c1.9,2.251,4.18,2.7,7.445,1.457,3.215-1.222,2.706.639-.568,2.089-4.441,1.962-4.128,3.467,1.431,6.9,3.84,2.372,1.516,2.407-3.517.052-4.927-2.307-5.149-2.229-6.565,2.3C312.748,494.888,312.008,495.09,312.008,491.189Zm-3.614,17.55c-.592-1.63-1.492-4.355-2-6.057-.608-2.032-1.371-3.177-2.219-3.338-.711-.133-3.655.862-6.542,2.217-9.35,4.384-13.107,4.09-5.748-.454,4.94-3.048,6.528-4.764,6.235-6.739-.24-1.618-.57-1.858-5.177-3.757-2.69-1.11-4.194-2.775-3.306-3.662.209-.212,1.77-.012,3.467.442,3.8,1.017,7.543,1.06,9.322.107.739-.394,2.3-2.41,3.462-4.477,2.288-4.051,3.813-4.976,3.079-1.863-1.3,5.536-1.226,10.857.217,14.486a22.573,22.573,0,0,1,1.437,8.951c-.016,6.729-.775,8.146-2.227,4.144Z" transform="translate(-288 -471.866)" fill="#8ebf2d"/>
        <path id="Trazado_2" data-name="Trazado 2" d="M311.679,481.821c1.169,2.181.758,4.678-.92,5.579s-3.987-.141-5.156-2.322-.758-4.679.92-5.579S310.51,479.637,311.679,481.821Z" transform="translate(-298.16 -474.703)" fill="#c7ea3d"/>
        <path id="Trazado_3" data-name="Trazado 3" d="M366.666,472.138c-.73,1.626-2.341,2.49-3.593,1.927s-1.673-2.338-.94-3.966,2.338-2.49,3.589-1.927S367.4,470.51,366.666,472.138Z" transform="translate(-332.25 -468)" fill="#c7ea3d"/>
      </g>
      <g id="Grupo_2" data-name="Grupo 2" transform="translate(47.345 0.679)">
        <g id="trabajo" transform="translate(0 0)">
          <g id="Grupo_4" data-name="Grupo 4">
            <path id="Trazado_5" data-name="Trazado 5" d="M418.33,503.385a6.8,6.8,0,0,1-3.377.705,6.565,6.565,0,0,1-4.972-1.818,5.994,5.994,0,0,1-1.6-4.379v-9.574h-2.078v-4.6h2.078v-4.082l7.05-1.781v5.863h2.895v4.6h-2.895v8.95q0,2.034,1.558,2.034a4.107,4.107,0,0,0,1.336-.26Z" transform="translate(-406.307 -474.589)" fill="#363636"/>
            <path id="Trazado_6" data-name="Trazado 6" d="M455.992,491.652l-1.225,4.9a4.945,4.945,0,0,0-2.226-.557,3.561,3.561,0,0,0-1.262.223V511.95h-7.051V493.1q3.08-1.521,8.98-1.521Q454.545,491.578,455.992,491.652Z" transform="translate(-429.053 -482.821)" fill="#363636"/>
            <path id="Trazado_7" data-name="Trazado 7" d="M494.791,510.8q-2.932,1.522-8.423,1.521-9.315,0-9.314-6.494a5.621,5.621,0,0,1,3.366-5.269,21.451,21.451,0,0,1,7.767-1.856v-.779q0-2.04-3.068-2.041a13.142,13.142,0,0,0-5.4,1.224l-1.442-3.97a21.24,21.24,0,0,1,8.238-1.559q8.275,0,8.275,7.718Zm-6.605-2.6v-6.345a6.7,6.7,0,0,0-3.249.89,3.1,3.1,0,0,0-1.278,2.783q0,2.932,3.03,2.931A3.4,3.4,0,0,0,488.186,508.2Z" transform="translate(-448.742 -482.821)" fill="#363636"/>
            <path id="Trazado_8" data-name="Trazado 8" d="M549.815,488.137q0,5.419-2.8,8.238t-8.034,2.821q-5.343,0-7.867-1.521V469.7h7.051v9.5a9.253,9.253,0,0,1,3.563-.631,7.339,7.339,0,0,1,5.844,2.616A10.318,10.318,0,0,1,549.815,488.137Zm-6.939.465a11.6,11.6,0,0,0-.594-4.366,2.613,2.613,0,0,0-2.635-1.664,3.555,3.555,0,0,0-1.484.259v11.95a3.586,3.586,0,0,0,1.262.185Q542.875,494.965,542.875,488.6Z" transform="translate(-481.166 -469.695)" fill="#363636"/>
            <path id="Trazado_9" data-name="Trazado 9" d="M601.609,510.8q-2.932,1.522-8.423,1.521-9.314,0-9.314-6.494a5.621,5.621,0,0,1,3.366-5.269A21.449,21.449,0,0,1,595,498.7v-.779q0-2.04-3.069-2.041a13.14,13.14,0,0,0-5.4,1.224l-1.442-3.97a21.244,21.244,0,0,1,8.238-1.559q8.274,0,8.275,7.718Zm-6.6-2.6v-6.345a6.7,6.7,0,0,0-3.25.89,3.1,3.1,0,0,0-1.278,2.783q0,2.932,3.03,2.931A3.4,3.4,0,0,0,595,508.2Z" transform="translate(-512.812 -482.821)" fill="#363636"/>
            <path id="Trazado_10" data-name="Trazado 10" d="M640.587,496.32a11.489,11.489,0,0,1-2.783,8.127,9.816,9.816,0,0,1-7.384,3.08v-4.675a4.034,4.034,0,0,0,2.375-1.6,8,8,0,0,0,.742-3.971V479.1h7.051Zm.111-22.969a2.863,2.863,0,0,1-1.057,2.227,3.723,3.723,0,0,1-2.542.927,3.8,3.8,0,0,1-2.6-.946,2.9,2.9,0,0,1-1.076-2.245,2.863,2.863,0,0,1,1.057-2.227,4.048,4.048,0,0,1,5.158,0A2.9,2.9,0,0,1,640.7,473.35Z" transform="translate(-540.731 -469.973)" fill="#363636"/>
            <path id="Trazado_11" data-name="Trazado 11" d="M682.651,501.931a10.969,10.969,0,0,1-2.449,7.459,9.591,9.591,0,0,1-13.8,0,12.612,12.612,0,0,1,.074-14.936,8.553,8.553,0,0,1,6.828-2.876,8.675,8.675,0,0,1,6.939,2.931A11.022,11.022,0,0,1,682.651,501.931Zm-7.013-.13q0-5.844-2.338-5.844t-2.338,5.844q0,5.733,2.338,5.734T675.638,501.8Z" transform="translate(-560.865 -482.821)" fill="#363636"/>
          </g>
        </g>
        <path id="Trazado_4" data-name="Trazado 4" d="M731.406,519.931c-2.061,3.259-5.76,4.617-8.267,3.033s-2.867-5.511-.811-8.767,5.76-4.617,8.268-3.029S733.463,516.675,731.406,519.931Z" transform="translate(-595.059 -494.173)" fill="#70bf00"/>
        <g id="org" transform="translate(141.365 8.757)">
          <g id="Grupo_5" data-name="Grupo 5">
            <path id="Trazado_12" data-name="Trazado 12" d="M778.216,501.931a10.972,10.972,0,0,1-2.449,7.459,9.591,9.591,0,0,1-13.8,0,12.612,12.612,0,0,1,.074-14.936,8.554,8.554,0,0,1,6.828-2.876,8.675,8.675,0,0,1,6.939,2.931A11.025,11.025,0,0,1,778.216,501.931Zm-7.013-.13q0-5.844-2.338-5.844t-2.338,5.844q0,5.733,2.338,5.734T771.2,501.8Z" transform="translate(-759.551 -491.578)" fill="#656565"/>
            <path id="Trazado_13" data-name="Trazado 13" d="M826.114,491.652l-1.224,4.9a4.944,4.944,0,0,0-2.227-.557,3.557,3.557,0,0,0-1.261.223V511.95h-7.051V493.1q3.08-1.521,8.98-1.521Q824.667,491.578,826.114,491.652Z" transform="translate(-792.42 -491.578)" fill="#656565"/>
            <path id="Trazado_14" data-name="Trazado 14" d="M866.247,511.987q0,4.3-2.634,6.457a10.224,10.224,0,0,1-6.643,1.967q-5.231,0-8.089-1.559l1.708-4.527a10.853,10.853,0,0,0,5.12,1.188q3.71,0,3.711-3.006v-.965a8.221,8.221,0,0,1-3.266.482,7.86,7.86,0,0,1-6.048-2.579,9.815,9.815,0,0,1-2.375-6.921q0-5.195,2.746-8.071t8.09-2.876q5.195,0,7.681,1.521Zm-6.828-4.193V495.846a3.144,3.144,0,0,0-1.3-.223,2.732,2.732,0,0,0-2.616,1.522,11.148,11.148,0,0,0-.8,4.9,10.046,10.046,0,0,0,.779,4.6,2.7,2.7,0,0,0,2.56,1.409A3.562,3.562,0,0,0,859.42,507.794Z" transform="translate(-812.442 -491.578)" fill="#656565"/>
          </g>
        </g>
      </g>
    </g>
  </g>
</svg>
